<?xml version="1.0" encoding="UTF-8"?>
<svg width="70" height="70" version="1.1" viewBox="0 0 18.521 18.521" xmlns="http://www.w3.org/2000/svg" xmlns:cc="http://creativecommons.org/ns#" xmlns:dc="http://purl.org/dc/elements/1.1/" xmlns:rdf="http://www.w3.org/1999/02/22-rdf-syntax-ns#" xmlns:xlink="http://www.w3.org/1999/xlink">
<metadata>
<rdf:RDF>
<cc:Work rdf:about="">
<dc:format>image/svg+xml</dc:format>
<dc:type rdf:resource="http://purl.org/dc/dcmitype/StillImage"/>
<dc:title/>
</cc:Work>
</rdf:RDF>
</metadata>
<defs>
<linearGradient id="b" x1="-9.0872" x2="53.183" y1="188.36" y2="250.9" gradientUnits="userSpaceOnUse">
<stop stop-color="#e81c24" offset="0"/>
<stop stop-color="#7c1315" offset="1"/>
</linearGradient>
<linearGradient id="a" x1="-464.96" x2="-248.84" y1="308.81" y2="308.81" gradientUnits="userSpaceOnUse">
<stop stop-color="#e5e5e5" offset="0"/>
<stop stop-color="#fefefe" offset="1"/>
</linearGradient>
<linearGradient id="c" x1="-464.96" x2="-248.84" y1="308.81" y2="308.81" gradientUnits="userSpaceOnUse" xlink:href="#a"/>
<clipPath id="d">
<rect x="3.9451" y="198.8" width="41.158" height="41.158" rx="2.2086e-15" fill="#0ff" fill-rule="evenodd" opacity=".5" stroke-linecap="square" stroke-width=".91439"/>
</clipPath>
</defs>
<g transform="matrix(.45 0 0 .45 -1.7753 -89.458)" clip-path="url(#d)" stroke-width="1.2">
<rect x="-17.105" y="179.67" width="79.375" height="79.375" fill="url(#b)"/>
<g transform="matrix(.30971 0 0 .30971 135.2 124.53)" fill="#f00">
<path d="m-403.24 365.59 134.87-41.564-180.39-104.72 140.29 103.62-85.28 24.963z"/>
<path d="m-458.86 226.31 63.57 79.08-45.883 92.936 30.169-9.2976c12.024-27.645 24.048-55.29 36.072-82.934l1.5684 21.762 37.364-9.6537z"/>
</g>
<g transform="matrix(.30971 0 0 .30971 135.2 122.91)" fill="#800000">
<path d="m-403.24 365.59 134.87-41.564-180.39-104.72 140.29 103.62-85.28 24.963z"/>
<path d="m-458.86 226.31 63.57 79.08-45.883 92.936 30.169-9.2976c12.024-27.645 24.048-55.29 36.072-82.934l1.5684 21.762 37.364-9.6537z"/>
</g>
<g transform="matrix(.30971 0 0 .30971 135.2 123.72)" fill="url(#c)" stroke-width="3.8746">
<path d="m-403.24 365.59 134.87-41.564-180.39-104.72 140.29 103.62-85.28 24.963z" stroke-width="3.8746"/>
<path d="m-458.86 226.31 63.57 79.08-45.883 92.936 30.169-9.2976c12.024-27.645 24.048-55.29 36.072-82.934l1.5684 21.762 37.364-9.6537z"/>
</g>
</g>
</svg>
